<svg width="24" height="24" viewBox="0 0 24 24" fill="none" xmlns="http://www.w3.org/2000/svg">
<path d="M20.875 6.5V20.25C20.875 20.6296 20.7998 20.9876 20.6494 21.3242C20.5062 21.6536 20.3092 21.9437 20.0586 22.1943C19.8151 22.4378 19.5251 22.6348 19.1885 22.7852C18.8519 22.9284 18.4974 23 18.125 23H5.75C5.37044 23 5.01237 22.9284 4.67578 22.7852C4.34635 22.6348 4.05632 22.4378 3.80566 22.1943C3.56217 21.9437 3.36523 21.6536 3.21484 21.3242C3.07161 20.9876 3 20.6296 3 20.25V6.5H5.75V5.125C5.75 4.55924 5.85742 4.02572 6.07227 3.52441C6.29427 3.02311 6.59147 2.58626 6.96387 2.21387C7.33626 1.84147 7.77311 1.54785 8.27441 1.33301C8.77572 1.111 9.30924 1 9.875 1C10.6198 1 11.3109 1.1862 11.9482 1.55859C12.5856 1.1862 13.2695 1 14 1C14.5658 1 15.0993 1.111 15.6006 1.33301C16.1019 1.54785 16.5387 1.84147 16.9111 2.21387C17.2835 2.58626 17.5771 3.02311 17.792 3.52441C18.014 4.02572 18.125 4.55924 18.125 5.125V6.5H20.875ZM16.75 5.125C16.75 4.7526 16.6748 4.39811 16.5244 4.06152C16.3812 3.72493 16.1842 3.4349 15.9336 3.19141C15.6901 2.94076 15.4001 2.74382 15.0635 2.60059C14.7269 2.4502 14.3724 2.375 14 2.375C13.6777 2.375 13.3734 2.42871 13.0869 2.53613C13.2946 2.79395 13.4593 3.04818 13.5811 3.29883C13.7028 3.54948 13.7923 3.80013 13.8496 4.05078C13.9141 4.30143 13.9535 4.55924 13.9678 4.82422C13.9893 5.08203 14 5.35417 14 5.64062V6.5H16.75V5.125ZM7.125 6.5H12.625V5.125C12.625 4.7526 12.5498 4.39811 12.3994 4.06152C12.2562 3.72493 12.0592 3.4349 11.8086 3.19141C11.5651 2.94076 11.2751 2.74382 10.9385 2.60059C10.6019 2.4502 10.2474 2.375 9.875 2.375C9.49544 2.375 9.13737 2.4502 8.80078 2.60059C8.47135 2.74382 8.18131 2.94076 7.93066 3.19141C7.68717 3.4349 7.49023 3.72493 7.33984 4.06152C7.19661 4.39811 7.125 4.7526 7.125 5.125V6.5ZM15.7402 21.625C15.4967 21.1953 15.375 20.737 15.375 20.25V7.875H4.375V20.25C4.375 20.4434 4.41081 20.6224 4.48242 20.7871C4.55404 20.9518 4.65072 21.0986 4.77246 21.2275C4.90137 21.3493 5.04818 21.446 5.21289 21.5176C5.3776 21.5892 5.55664 21.625 5.75 21.625H15.7402ZM19.5 7.875H16.75V20.25C16.75 20.4434 16.7858 20.6224 16.8574 20.7871C16.929 20.9518 17.0257 21.0986 17.1475 21.2275C17.2764 21.3493 17.4232 21.446 17.5879 21.5176C17.7526 21.5892 17.9316 21.625 18.125 21.625C18.3184 21.625 18.4974 21.5892 18.6621 21.5176C18.8268 21.446 18.9701 21.3493 19.0918 21.2275C19.2207 21.0986 19.321 20.9518 19.3926 20.7871C19.4642 20.6224 19.5 20.4434 19.5 20.25V7.875Z" fill="#282828"/>
</svg>
